<svg xmlns="http://www.w3.org/2000/svg" width="28.928" height="31.038" viewBox="0 0 28.928 31.038">
  <path id="Icon_feather-github" data-name="Icon feather-github" d="M12.987,27.18C5.854,29.32,5.854,23.613,3,22.9M22.975,31.46V25.938a4.808,4.808,0,0,0-1.341-3.724c4.48-.5,9.188-2.2,9.188-9.987a7.761,7.761,0,0,0-2.139-5.349,7.234,7.234,0,0,0-.129-5.38S26.87,1,22.975,3.61a19.09,19.09,0,0,0-9.987,0C9.092,1,7.409,1.5,7.409,1.5A7.234,7.234,0,0,0,7.28,6.877,7.762,7.762,0,0,0,5.14,12.27c0,7.733,4.708,9.431,9.188,9.987a4.808,4.808,0,0,0-1.341,3.681V31.46" transform="translate(-2.394 -0.922)" fill="none" stroke="#f2e529" stroke-linecap="round" stroke-linejoin="round" stroke-width="1"/>
</svg>
